<svg width="32" height="32" viewBox="0 0 32 32" fill="none" xmlns="http://www.w3.org/2000/svg">
<path d="M8.64014 12.8202C8.50753 12.8202 8.38035 12.7675 8.28658 12.6737C8.19281 12.58 8.14014 12.4528 8.14014 12.3202V11.0952C8.14014 10.9626 8.19281 10.8354 8.28658 10.7416C8.38035 10.6479 8.50753 10.5952 8.64014 10.5952C8.77274 10.5952 8.89992 10.6479 8.99369 10.7416C9.08746 10.8354 9.14014 10.9626 9.14014 11.0952V11.5002L10.8701 10.6352C10.9888 10.5762 11.1261 10.5668 11.2517 10.609C11.3773 10.6512 11.4811 10.7416 11.5401 10.8602C11.5994 10.9783 11.6096 11.115 11.5684 11.2406C11.5271 11.3661 11.4379 11.4702 11.3201 11.5302L8.86514 12.7602C8.7959 12.7976 8.71881 12.8182 8.64014 12.8202Z" fill="#FF4D72"/>
<path d="M10.5951 17.7249H9.14014C8.87492 17.7249 8.62057 17.6195 8.43303 17.432C8.24549 17.2445 8.14014 16.9901 8.14014 16.7249V15.2749C8.14014 15.0097 8.24549 14.7553 8.43303 14.5678C8.62057 14.3803 8.87492 14.2749 9.14014 14.2749H10.5951C10.8604 14.2749 11.1147 14.3803 11.3022 14.5678C11.4898 14.7553 11.5951 15.0097 11.5951 15.2749V16.7249C11.5951 16.9901 11.4898 17.2445 11.3022 17.432C11.1147 17.6195 10.8604 17.7249 10.5951 17.7249ZM9.14014 15.2749V16.7249H10.5951V15.2749H9.14014Z" fill="#FF4D72"/>
<path d="M23.4199 12.21H13.4199C13.2873 12.21 13.1601 12.1573 13.0664 12.0635C12.9726 11.9697 12.9199 11.8426 12.9199 11.71C12.9199 11.5774 12.9726 11.4502 13.0664 11.3564C13.1601 11.2626 13.2873 11.21 13.4199 11.21H23.4199C23.5525 11.21 23.6797 11.2626 23.7735 11.3564C23.8672 11.4502 23.9199 11.5774 23.9199 11.71C23.9199 11.8426 23.8672 11.9697 23.7735 12.0635C23.6797 12.1573 23.5525 12.21 23.4199 12.21Z" fill="#FF4D72"/>
<path d="M23.4199 16.5H13.4199C13.2873 16.5 13.1601 16.4473 13.0664 16.3536C12.9726 16.2598 12.9199 16.1326 12.9199 16C12.9199 15.8674 12.9726 15.7402 13.0664 15.6464C13.1601 15.5527 13.2873 15.5 13.4199 15.5H23.4199C23.5525 15.5 23.6797 15.5527 23.7735 15.6464C23.8672 15.7402 23.9199 15.8674 23.9199 16C23.9199 16.1326 23.8672 16.2598 23.7735 16.3536C23.6797 16.4473 23.5525 16.5 23.4199 16.5Z" fill="#FF4D72"/>
<path d="M19.4047 7.915H12.5947C12.0643 7.915 11.5556 7.70429 11.1805 7.32921C10.8054 6.95414 10.5947 6.44543 10.5947 5.915V4C10.5947 3.46957 10.8054 2.96086 11.1805 2.58579C11.5556 2.21071 12.0643 2 12.5947 2H19.4047C19.9352 2 20.4439 2.21071 20.8189 2.58579C21.194 2.96086 21.4047 3.46957 21.4047 4V5.905C21.406 6.16848 21.3553 6.42963 21.2554 6.67344C21.1554 6.91724 21.0083 7.13891 20.8225 7.32568C20.6366 7.51246 20.4157 7.66067 20.1724 7.76181C19.9291 7.86294 19.6682 7.915 19.4047 7.915ZM12.5947 3C12.3295 3 12.0752 3.10536 11.8876 3.29289C11.7001 3.48043 11.5947 3.73478 11.5947 4V5.905C11.5947 6.17022 11.7001 6.42457 11.8876 6.61211C12.0752 6.79964 12.3295 6.905 12.5947 6.905H19.4047C19.6699 6.905 19.9243 6.79964 20.1118 6.61211C20.2994 6.42457 20.4047 6.17022 20.4047 5.905V4C20.4047 3.73478 20.2994 3.48043 20.1118 3.29289C19.9243 3.10536 19.6699 3 19.4047 3H12.5947Z" fill="#34485C"/>
<path d="M23.6499 29.9998H8.34994C7.64487 29.9985 6.96906 29.7178 6.4705 29.2193C5.97194 28.7207 5.69126 28.0449 5.68994 27.3398V7.12484C5.68994 6.41937 5.97019 5.74279 6.46904 5.24394C6.96788 4.74509 7.64447 4.46484 8.34994 4.46484H11.0949C11.2276 4.46484 11.3547 4.51752 11.4485 4.61129C11.5423 4.70506 11.5949 4.83224 11.5949 4.96484C11.5949 5.09745 11.5423 5.22463 11.4485 5.3184C11.3547 5.41217 11.2276 5.46484 11.0949 5.46484H8.34994C7.90968 5.46484 7.48745 5.63974 7.17614 5.95105C6.86483 6.26236 6.68994 6.68458 6.68994 7.12484V27.3398C6.68994 27.7801 6.86483 28.2023 7.17614 28.5136C7.48745 28.825 7.90968 28.9998 8.34994 28.9998H23.6499C24.0902 28.9998 24.5124 28.825 24.8237 28.5136C25.135 28.2023 25.3099 27.7801 25.3099 27.3398V7.12484C25.3099 6.68458 25.135 6.26236 24.8237 5.95105C24.5124 5.63974 24.0902 5.46484 23.6499 5.46484H20.9049C20.7723 5.46484 20.6452 5.41217 20.5514 5.3184C20.4576 5.22463 20.4049 5.09745 20.4049 4.96484C20.4049 4.83224 20.4576 4.70506 20.5514 4.61129C20.6452 4.51752 20.7723 4.46484 20.9049 4.46484H23.6499C24.3554 4.46484 25.032 4.74509 25.5308 5.24394C26.0297 5.74279 26.3099 6.41937 26.3099 7.12484V27.3398C26.3086 28.0449 26.0279 28.7207 25.5294 29.2193C25.0308 29.7178 24.355 29.9985 23.6499 29.9998Z" fill="#34485C"/>
<path d="M10.5951 22.7249H9.14014C8.87492 22.7249 8.62057 22.6195 8.43303 22.432C8.24549 22.2445 8.14014 21.9901 8.14014 21.7249V20.2749C8.14014 20.0097 8.24549 19.7553 8.43303 19.5678C8.62057 19.3803 8.87492 19.2749 9.14014 19.2749H10.5951C10.8604 19.2749 11.1147 19.3803 11.3022 19.5678C11.4898 19.7553 11.5951 20.0097 11.5951 20.2749V21.7249C11.5951 21.9901 11.4898 22.2445 11.3022 22.432C11.1147 22.6195 10.8604 22.7249 10.5951 22.7249ZM9.14014 20.2749V21.7249H10.5951V20.2749H9.14014Z" fill="#34485C"/>
<path d="M23.4199 21.5H13.4199C13.2873 21.5 13.1601 21.4473 13.0664 21.3536C12.9726 21.2598 12.9199 21.1326 12.9199 21C12.9199 20.8674 12.9726 20.7402 13.0664 20.6464C13.1601 20.5527 13.2873 20.5 13.4199 20.5H23.4199C23.5525 20.5 23.6797 20.5527 23.7735 20.6464C23.8672 20.7402 23.9199 20.8674 23.9199 21C23.9199 21.1326 23.8672 21.2598 23.7735 21.3536C23.6797 21.4473 23.5525 21.5 23.4199 21.5Z" fill="#34485C"/>
</svg>
