<svg width="61" height="61" viewBox="0 0 61 61" fill="none" xmlns="http://www.w3.org/2000/svg">
<path d="M18.0279 41.612H14.8059C9.64794 41.612 5.45162 37.4157 5.45162 32.2578C5.45162 27.8553 8.57407 24.0052 12.876 23.1033C13.0829 23.0598 13.2634 22.9343 13.3759 22.7553C13.4885 22.5763 13.5235 22.3593 13.473 22.154C13.3574 21.6842 13.2988 21.2021 13.2988 20.7209C13.2988 17.4255 15.9797 14.7445 19.2751 14.7445C20.2076 14.7445 21.1024 14.9546 21.9344 15.3689C22.1245 15.4636 22.345 15.4765 22.545 15.4049C22.7449 15.3333 22.9069 15.1831 22.9935 14.9893C23.7321 13.3372 25.0061 11.9323 26.5805 11.0332C26.9543 10.8197 27.0844 10.3436 26.8708 9.9697C26.6573 9.59584 26.1811 9.46592 25.8073 9.67941C24.1716 10.6135 22.8105 12.0101 21.9125 13.6611C21.0717 13.3453 20.1876 13.1857 19.2751 13.1857C15.1201 13.1857 11.7398 16.566 11.7398 20.7211C11.7398 21.0687 11.764 21.4165 11.8121 21.7616C9.6919 22.367 7.78052 23.6173 6.36896 25.3356C4.77198 27.2793 3.89258 29.7377 3.89258 32.2578C3.89258 38.2754 8.78828 43.1711 14.8059 43.1711H18.0279C18.4584 43.1711 18.8074 42.8221 18.8074 42.3915C18.8074 41.9609 18.4584 41.612 18.0279 41.612Z" fill="#34485C"/>
<path d="M53.4125 28.6812C53.8649 27.4675 54.0936 26.1914 54.0936 24.8781C54.0936 18.8605 49.1979 13.9648 43.1803 13.9648C42.1309 13.9648 41.0992 14.1127 40.1034 14.405C38.4978 10.7543 34.8608 8.35107 30.8252 8.35107C30.3924 8.35107 29.9563 8.37872 29.529 8.43329C29.102 8.48775 28.8 8.87813 28.8545 9.30521C28.9089 9.73228 29.2986 10.0339 29.7264 9.97975C30.0884 9.93361 30.4582 9.91012 30.8252 9.91012C34.4576 9.91012 37.7085 12.2111 38.9147 15.6356C38.9841 15.8328 39.1299 15.9939 39.3192 16.0827C39.5086 16.1714 39.7256 16.1802 39.9215 16.1074C40.9634 15.7201 42.0598 15.5238 43.1803 15.5238C48.3383 15.5238 52.5346 19.7201 52.5346 24.8781C52.5346 26.2108 52.2601 27.4983 51.7186 28.7045C51.5476 29.0854 51.707 29.5334 52.0803 29.7205C54.2197 30.7935 55.5487 32.9446 55.5487 35.3343C55.5487 38.7957 52.7326 41.6118 49.2711 41.6118H43.0196C42.5891 41.6118 42.2401 41.9607 42.2401 42.3913C42.2401 42.8219 42.5891 43.1708 43.0196 43.1708H49.2711C53.5922 43.1708 57.1078 39.6554 57.1078 35.3343C57.1078 32.5944 55.709 30.1064 53.4125 28.6812Z" fill="#34485C"/>
<path d="M28.0376 33.2846C28.822 32.3494 28.6994 30.9502 27.7643 30.1657C27.3112 29.7856 26.7375 29.6046 26.1483 29.6564C25.5591 29.708 25.0254 29.9859 24.6451 30.4393C24.2708 30.9138 23.5456 31.2743 22.727 31.2676C20.7842 31.2676 19.2036 29.687 19.2036 27.7442C19.2036 25.8014 20.7842 24.2208 22.727 24.2208C23.4333 24.2208 24.114 24.4284 24.6955 24.8214C25.7073 25.5044 27.086 25.2374 27.7691 24.2262C28.1003 23.7361 28.2206 23.1465 28.1083 22.5659C27.9959 21.9853 27.6642 21.4833 27.1741 21.1521C25.8579 20.263 24.32 19.793 22.727 19.793C18.3428 19.793 14.7759 23.3597 14.7759 27.7441C14.7759 28.2486 14.8238 28.7539 14.9182 29.2459C14.9993 29.6686 15.4075 29.9454 15.8307 29.8644C16.2534 29.7833 16.5304 29.3747 16.4494 28.9519C16.3735 28.5566 16.3349 28.1502 16.3349 27.7441C16.3349 24.2195 19.2024 21.352 22.727 21.352C24.0078 21.352 25.2438 21.7296 26.3014 22.4441C26.4462 22.5419 26.5444 22.6904 26.5776 22.8621C26.6109 23.0338 26.5752 23.2083 26.4773 23.3533C26.2753 23.6523 25.8673 23.7312 25.5683 23.5294C24.7282 22.9616 23.7457 22.6615 22.727 22.6615C19.9246 22.6615 17.6445 24.9415 17.6445 27.744C17.6445 30.5464 19.9246 32.8265 22.727 32.8265C23.956 32.7998 25.0158 32.4134 25.8398 31.4408C25.9522 31.3067 26.11 31.2246 26.2842 31.2092C26.4577 31.1939 26.6282 31.2475 26.7622 31.3599C27.0388 31.5919 27.0751 32.0059 26.8431 32.2825C25.94 33.3938 24.3628 34.1592 22.7269 34.1359C20.8488 34.1359 19.0718 33.3112 17.8518 31.8732C17.5732 31.5449 17.0813 31.5045 16.7531 31.7831C16.4247 32.0617 16.3844 32.5535 16.6629 32.8819C18.1798 34.6696 20.39 35.6949 22.7269 35.6949C24.8227 35.679 26.6729 34.8904 28.0376 33.2846Z" fill="#FF4D72"/>
<path d="M41.6537 20.8548C40.4516 20.1601 39.0798 19.793 37.687 19.793C33.3027 19.793 29.7358 23.3597 29.7358 27.7441C29.7358 32.1284 33.3027 35.6952 37.687 35.6952C42.0712 35.6952 45.6381 32.1284 45.6381 27.7441C45.6381 26.3062 45.2483 24.8962 44.511 23.6665C44.2896 23.2971 43.8108 23.1772 43.4415 23.3987C43.0723 23.6201 42.9524 24.0989 43.1739 24.4681C43.766 25.4558 44.079 26.5886 44.079 27.7442C44.079 31.2688 41.2115 34.1363 37.687 34.1363C34.1624 34.1363 31.2949 31.2688 31.2949 27.7442C31.2949 24.2196 34.1624 21.3521 37.687 21.3521C38.8063 21.3521 39.9083 21.647 40.8736 22.2048C41.2465 22.4201 41.7232 22.2926 41.9386 21.9198C42.154 21.547 42.0264 21.0701 41.6537 20.8548Z" fill="#FF4D72"/>
<path d="M37.687 22.6616C34.8844 22.6616 32.6045 24.9417 32.6045 27.7441C32.6045 30.5465 34.8845 32.8266 37.687 32.8266C40.4894 32.8266 42.7694 30.5465 42.7694 27.7441C42.7694 24.9417 40.4894 22.6616 37.687 22.6616ZM37.687 31.2676C35.7441 31.2676 34.1635 29.687 34.1635 27.7442C34.1635 25.8014 35.7442 24.2208 37.687 24.2208C39.6297 24.2208 41.2104 25.8014 41.2104 27.7442C41.2104 29.687 39.6297 31.2676 37.687 31.2676Z" fill="#FF4D72"/>
<path d="M49.9721 35.7567C50.4208 35.0872 50.7752 34.5583 50.7838 33.7683C50.7904 33.1491 50.551 32.5623 50.1096 32.1161C49.6636 31.6653 49.0711 31.417 48.4409 31.417C47.3448 31.417 46.3933 32.1822 46.1549 33.2453C46.0634 33.6531 46.2756 34.0786 46.6751 34.2013C47.1242 34.3393 47.5835 34.0569 47.6718 33.6071C47.7436 33.2414 48.0671 32.976 48.4409 32.976C48.6514 32.976 48.8503 33.06 49.0013 33.2124C49.1476 33.3604 49.227 33.5518 49.2248 33.7515C49.2216 34.0488 49.0813 34.2853 48.6813 34.8822C47.7335 36.236 47.1575 36.9946 46.8479 37.4025C46.4355 37.9455 46.2473 38.1933 46.3795 38.6209C46.4315 38.7891 46.5337 38.9312 46.6716 39.0323C46.7827 39.1138 46.9157 39.1593 47.0524 39.1769C47.6877 39.2585 49.1503 39.1933 50.2755 39.1914C50.706 39.1847 51.0494 38.8301 51.0427 38.3997C51.036 37.9734 50.6882 37.6325 50.2635 37.6325C50.2593 37.6325 50.255 37.6325 50.2509 37.6326C49.6991 37.6413 49.1161 37.6479 48.6113 37.6512C48.8863 37.281 49.3971 36.579 49.9721 35.7567Z" fill="#FF4D72"/>
<path d="M23.9611 48.9911L22.7933 50.1588C22.839 49.8238 22.9233 49.592 23.0215 49.3234C23.1899 48.8628 23.3807 48.3411 23.3807 47.3503C23.3807 46.3596 23.1899 45.8376 23.0215 45.3772C22.8738 44.9733 22.7571 44.6542 22.7571 43.9397C22.7571 43.2252 22.8738 42.9062 23.0214 42.5023C23.1898 42.0419 23.3807 41.5201 23.3807 40.5295C23.3807 40.0989 23.0317 39.75 22.6012 39.75C22.1707 39.75 21.8216 40.0989 21.8216 40.5295C21.8216 41.244 21.7049 41.563 21.5573 41.9669C21.389 42.4273 21.198 42.9491 21.198 43.9397C21.198 44.9304 21.3888 45.4522 21.5572 45.9127C21.7049 46.3166 21.8216 46.6357 21.8216 47.3503C21.8216 48.0649 21.7049 48.384 21.5572 48.7879C21.4503 49.0806 21.3344 49.3985 21.2639 49.8452L20.4098 48.9911C20.1053 48.6867 19.6117 48.6867 19.3074 48.9911C19.003 49.2956 19.003 49.7891 19.3074 50.0935L21.6342 52.4203C21.7864 52.5725 21.986 52.6486 22.1854 52.6486C22.3849 52.6486 22.5844 52.5725 22.7366 52.4203L25.0634 50.0935C25.3678 49.789 25.3678 49.2955 25.0634 48.9911C24.7591 48.6867 24.2655 48.6867 23.9611 48.9911Z" fill="#34485C"/>
<path d="M32.276 48.9911L31.1083 50.1588C31.1539 49.8238 31.2382 49.592 31.3364 49.3234C31.5048 48.8628 31.6956 48.3411 31.6956 47.3503C31.6956 46.3596 31.5048 45.8376 31.3364 45.3772C31.1887 44.9733 31.072 44.6542 31.072 43.9397C31.072 43.2252 31.1887 42.9062 31.3363 42.5023C31.5047 42.0419 31.6956 41.5201 31.6956 40.5295C31.6956 40.0989 31.3466 39.75 30.9161 39.75C30.4856 39.75 30.1366 40.0989 30.1366 40.5295C30.1366 41.244 30.0199 41.563 29.8723 41.9669C29.7039 42.4273 29.513 42.9491 29.513 43.9397C29.513 44.9304 29.7038 45.4522 29.8722 45.9127C30.0199 46.3166 30.1366 46.6357 30.1366 47.3503C30.1366 48.0649 30.0199 48.384 29.8722 48.7879C29.7652 49.0806 29.6493 49.3985 29.5789 49.8452L28.7247 48.9911C28.4203 48.6867 27.9267 48.6867 27.6224 48.9911C27.3179 49.2956 27.3179 49.7891 27.6224 50.0935L29.9492 52.4203C30.1013 52.5725 30.3009 52.6486 30.5004 52.6486C30.6998 52.6486 30.8994 52.5725 31.0515 52.4203L33.3783 50.0935C33.6828 49.789 33.6828 49.2955 33.3783 48.9911C33.074 48.6867 32.5804 48.6867 32.276 48.9911Z" fill="#34485C"/>
<path d="M40.5905 48.9911L39.4227 50.1588C39.4684 49.8238 39.5527 49.592 39.6509 49.3234C39.8192 48.8628 40.0101 48.3411 40.0101 47.3503C40.0101 46.3596 39.8192 45.8376 39.6509 45.3772C39.5032 44.9733 39.3865 44.6542 39.3865 43.9397C39.3865 43.2252 39.5032 42.9062 39.6508 42.5023C39.8191 42.0419 40.0101 41.5201 40.0101 40.5295C40.0101 40.0989 39.6611 39.75 39.2306 39.75C38.8001 39.75 38.451 40.0989 38.451 40.5295C38.451 41.244 38.3343 41.563 38.1867 41.9669C38.0183 42.4273 37.8274 42.9491 37.8274 43.9397C37.8274 44.9304 38.0182 45.4522 38.1866 45.9127C38.3343 46.3166 38.451 46.6357 38.451 47.3503C38.451 48.0649 38.3343 48.384 38.1866 48.7879C38.0797 49.0806 37.9638 49.3985 37.8933 49.8452L37.0392 48.9911C36.7347 48.6867 36.2411 48.6867 35.9368 48.9911C35.6324 49.2956 35.6324 49.7891 35.9368 50.0935L38.2636 52.4203C38.4158 52.5725 38.6154 52.6486 38.8148 52.6486C39.0143 52.6486 39.2138 52.5725 39.366 52.4203L41.6928 50.0935C41.9972 49.789 41.9972 49.2955 41.6928 48.9911C41.3885 48.6867 40.8949 48.6867 40.5905 48.9911Z" fill="#34485C"/>
</svg>
