<svg width="48" height="48" viewBox="0 0 48 48" fill="none" xmlns="http://www.w3.org/2000/svg">
<path d="M26.8569 35.7145V34.162H28.0773V31.1311H26.8569V29.83H28.0773V28.3662C28.0773 27.3904 28.3581 26.6117 28.9199 26.0302C29.4913 25.4388 30.3533 25.1431 31.5058 25.1431C32.0773 25.1431 32.639 25.2367 33.1911 25.424C33.7431 25.6113 34.2032 25.8774 34.5712 26.2224L33.932 27.5974C33.593 27.2623 33.2201 27.0257 32.8133 26.8877C32.4066 26.7399 31.9998 26.6659 31.593 26.6659C31.0313 26.6659 30.6148 26.8089 30.3436 27.0947C30.0724 27.3707 29.9368 27.7699 29.9368 28.2923V29.83H32.3485V31.1311H29.9368V34.162H34.3678V35.7145H26.8569Z" fill="#FF4D72"/>
<path d="M39.4528 25.018C38.4202 23.4089 36.9653 22.1213 35.2456 21.2946C34.852 21.1053 34.3796 21.271 34.1905 21.6645C34.0014 22.0581 34.167 22.5303 34.5605 22.7195C37.5574 24.1601 39.4938 27.2383 39.4938 30.5614C39.4938 31.9834 39.1433 33.3936 38.4803 34.6398C38.2752 35.0252 38.4214 35.5039 38.8068 35.7089C38.9251 35.7719 39.0522 35.8018 39.1774 35.8018C39.4603 35.8018 39.7339 35.6495 39.876 35.3824C40.6603 33.9086 41.0748 32.2414 41.0748 30.5614C41.0748 28.5883 40.5139 26.6714 39.4528 25.018Z" fill="#FF4D72"/>
<path d="M32.0371 20.2847L31.9839 20.2847C31.5474 20.2847 31.1934 20.6386 31.1934 21.0752C31.1934 21.5118 31.5474 21.8657 31.9839 21.8657L32.0296 21.8658C32.0309 21.8658 32.0321 21.8658 32.0334 21.8658C32.4683 21.8658 32.8218 21.5143 32.8239 21.079C32.8258 20.6424 32.4736 20.2868 32.0371 20.2847Z" fill="#FF4D72"/>
<path d="M27.0357 38.4031C24.0389 36.9623 22.1025 33.8842 22.1025 30.5611C22.1025 29.1391 22.453 27.7289 23.116 26.4828C23.3211 26.0974 23.1749 25.6187 22.7895 25.4136C22.4042 25.2085 21.9253 25.3547 21.7203 25.7402C20.936 27.2141 20.5215 28.8811 20.5215 30.5611C20.5215 32.5342 21.0824 34.451 22.1435 36.1046C23.1761 37.7136 24.631 39.0012 26.3507 39.828C26.4612 39.8812 26.5778 39.9062 26.6927 39.9062C26.9871 39.9062 27.2696 39.7411 27.4057 39.4581C27.5948 39.0646 27.4292 38.5922 27.0357 38.4031Z" fill="#FF4D72"/>
<path d="M29.6128 39.257L29.567 39.2568C29.1285 39.256 28.7749 39.607 28.773 40.0436C28.7709 40.4802 29.1233 40.8358 29.5598 40.8379L29.6128 40.838C30.0493 40.838 30.4033 40.484 30.4033 40.0475C30.4033 39.611 30.0493 39.257 29.6128 39.257Z" fill="#FF4D72"/>
<path d="M34.3879 17.6101C34.2916 17.3808 34.1738 17.1648 34.0366 16.9644H36.0947C38.0997 16.9644 39.731 15.3331 39.731 13.328C39.731 11.323 38.0997 9.69169 36.0947 9.69169H29.7642C30.1667 9.10655 30.403 8.39865 30.403 7.63636C30.403 5.6313 28.7717 4 26.7666 4H7.39905C5.394 4 3.7627 5.6313 3.7627 7.63636C3.7627 9.64141 5.394 11.2727 7.39905 11.2727H13.7295C13.327 11.8579 13.0907 12.5658 13.0907 13.328C13.0907 14.0903 13.3269 14.7982 13.7295 15.3834H11.6678C9.66276 15.3834 8.03146 17.0147 8.03146 19.0197C8.03146 20.1713 8.57012 21.1989 9.40814 21.8656C8.57012 22.5323 8.03146 23.5599 8.03146 24.7114C8.03146 25.863 8.57012 26.8905 9.40814 27.5573C8.57012 28.224 8.03146 29.2516 8.03146 30.4031C8.03146 31.5547 8.57012 32.5822 9.40814 33.249C8.57012 33.9157 8.03146 34.9433 8.03146 36.0948C8.03146 38.0999 9.66276 39.7312 11.6678 39.7312H20.984C23.4382 42.3562 26.9296 44 30.7983 44C38.2084 44 44.237 37.9714 44.237 30.5613C44.237 24.394 40.0607 19.1844 34.3879 17.6101ZM36.0947 11.2727C37.228 11.2727 38.15 12.1948 38.15 13.328C38.15 14.4613 37.228 15.3834 36.0947 15.3834H31.0354H16.7271C15.5937 15.3834 14.6718 14.4613 14.6718 13.328C14.6718 12.1948 15.5937 11.2727 16.7271 11.2727H36.0947ZM7.39905 9.69169C6.26569 9.69169 5.34372 8.76964 5.34372 7.63636C5.34372 6.50308 6.26569 5.58102 7.39905 5.58102H26.7666C27.9 5.58102 28.8219 6.50308 28.8219 7.63636C28.8219 8.76964 27.9 9.69169 26.7666 9.69169H7.39905ZM11.6678 16.9644H31.0354C31.3538 16.9644 31.6587 17.0384 31.9322 17.1709C31.5583 17.1395 31.1803 17.1226 30.7983 17.1226C27.0872 17.1226 23.7228 18.6348 21.2885 21.0751H11.6678C10.5345 21.0751 9.61249 20.153 9.61249 19.0197C9.61249 17.8865 10.5345 16.9644 11.6678 16.9644ZM11.6678 22.6561H19.9378C19.0404 23.8856 18.3465 25.2723 17.9059 26.7668H11.6678C10.5345 26.7668 9.61249 25.8448 9.61249 24.7114C9.61249 23.5781 10.5345 22.6561 11.6678 22.6561ZM11.6678 28.3478H17.5429C17.423 29.0682 17.3596 29.8074 17.3596 30.5613C17.3596 31.2052 17.4061 31.8384 17.4941 32.4584H11.6678C10.5345 32.4584 9.61249 31.5365 9.61249 30.4031C9.61249 29.2698 10.5345 28.3478 11.6678 28.3478ZM11.6678 38.1501C10.5345 38.1501 9.61249 37.2282 9.61249 36.0948C9.61249 34.9614 10.5345 34.0395 11.6678 34.0395H17.8169C18.2158 35.5267 18.8638 36.9127 19.7136 38.1501H11.6678ZM30.7983 42.419C24.26 42.419 18.9406 37.0996 18.9406 30.5613C18.9406 24.023 24.26 18.7036 30.7983 18.7036C37.3366 18.7036 42.656 24.023 42.656 30.5613C42.656 37.0996 37.3366 42.419 30.7983 42.419Z" fill="#34485C"/>
</svg>
