<svg width="32" height="32" viewBox="0 0 32 32" fill="none" xmlns="http://www.w3.org/2000/svg">
<path d="M14.8491 16.4951H13.2762C13.021 16.4951 12.8179 16.7034 12.8179 16.9534C12.8179 17.2087 13.0262 17.4118 13.2762 17.4118H14.8491C15.1043 17.4118 15.3074 17.2034 15.3074 16.9534C15.3074 16.6982 15.1043 16.4951 14.8491 16.4951Z" fill="#FF4D72"/>
<path d="M17.4482 24.844V25.7659H22.0055C22.2607 25.7659 22.4638 25.5575 22.4638 25.3075V6.69319C22.4638 6.43799 22.2555 6.23486 22.0055 6.23486H17.4535V7.15673H21.5472V24.844H17.4482Z" fill="#FF4D72"/>
<path d="M24.2346 4.00146H17.4482V4.92333H23.7763V27.0793H23.12C22.8648 27.0793 22.6617 27.2876 22.6617 27.5376C22.6617 27.7928 22.8701 27.996 23.12 27.996H24.2346C24.4898 27.996 24.6929 27.7876 24.6929 27.5376V4.465C24.6982 4.2098 24.4898 4.00146 24.2346 4.00146Z" fill="#34485C"/>
<path d="M22.151 27.5379C22.151 27.2827 21.9427 27.0796 21.6927 27.0796H17.4531V28.0015H21.6927C21.9427 28.0015 22.151 27.7931 22.151 27.5379Z" fill="#34485C"/>
<path d="M17.448 27.078V25.7655V24.8436V7.15636V6.23449V4.92201V4.00015V3.12516C17.448 2.98453 17.3802 2.84912 17.2657 2.76058C17.1511 2.67204 17.0052 2.646 16.8646 2.68245L7.67724 5.13555C7.47412 5.18763 7.3335 5.36992 7.3335 5.57825V7.06261C7.3335 7.31781 7.54183 7.52094 7.79182 7.52094C8.04703 7.52094 8.25015 7.31261 8.25015 7.06261V5.93241L16.5261 3.72411V28.3124L8.25536 26.6561V8.61467C8.25536 8.35947 8.04703 8.15635 7.79703 8.15635C7.54183 8.15635 7.3387 8.36468 7.3387 8.61467V27.0311C7.3387 27.2499 7.49495 27.4374 7.70849 27.4842L16.9011 29.3228C16.9323 29.328 16.9636 29.3332 16.9896 29.3332C17.0938 29.3332 17.198 29.2967 17.2813 29.229C17.3855 29.1405 17.448 29.0103 17.448 28.8748V27.9999V27.078Z" fill="#34485C"/>
</svg>
