<svg width="32" height="32" viewBox="0 0 32 32" fill="none" xmlns="http://www.w3.org/2000/svg">
<path fill-rule="evenodd" clip-rule="evenodd" d="M19.7252 16.0003C19.7252 16.2657 19.6199 16.5217 19.4305 16.7083L14.7825 21.3363C14.3905 21.7269 13.7572 21.7243 13.3679 21.3336C12.9785 20.9416 12.9785 20.3083 13.3705 19.9189L17.3092 16.0003L13.3705 12.0803C12.9785 11.691 12.9785 11.0577 13.3679 10.6657C13.7572 10.275 14.3905 10.2737 14.7825 10.663L19.4305 15.2923C19.6199 15.479 19.7252 15.735 19.7252 16.0003Z" fill="#FF4D72"/>
<path fill-rule="evenodd" clip-rule="evenodd" d="M4.6665 16.0002C4.6665 22.2495 9.7505 27.3335 15.9998 27.3335C22.2492 27.3335 27.3332 22.2495 27.3332 16.0002C27.3332 9.75083 22.2492 4.66683 15.9998 4.66683C9.7505 4.66683 4.6665 9.75083 4.6665 16.0002ZM29.3332 16.0002C29.3332 23.3522 23.3518 29.3335 15.9998 29.3335C8.64784 29.3335 2.6665 23.3522 2.6665 16.0002C2.6665 8.64816 8.64784 2.66683 15.9998 2.66683C23.3518 2.66683 29.3332 8.64816 29.3332 16.0002Z" fill="#34485C"/>
</svg>
