<svg width="24" height="24" viewBox="0 0 24 24" fill="none" xmlns="http://www.w3.org/2000/svg">
<path fill-rule="evenodd" clip-rule="evenodd" d="M12 16.645C11.5858 16.645 11.25 16.3092 11.25 15.895V12C11.25 11.5858 11.5858 11.25 12 11.25C12.4142 11.25 12.75 11.5858 12.75 12V15.895C12.75 16.3092 12.4142 16.645 12 16.645Z" fill="#FF4D72"/>
<path fill-rule="evenodd" clip-rule="evenodd" d="M12.7541 8.5C12.7541 8.91421 12.4183 9.25 12.0041 9.25H11.9951C11.5809 9.25 11.2451 8.91421 11.2451 8.5C11.2451 8.08579 11.5809 7.75 11.9951 7.75H12.0041C12.4183 7.75 12.7541 8.08579 12.7541 8.5Z" fill="#FF4D72"/>
<path fill-rule="evenodd" clip-rule="evenodd" d="M18.6961 18.696C19.9191 17.473 20.5 15.4269 20.5 12C20.5 8.5731 19.9191 6.52693 18.6961 5.30395C17.4731 4.08098 15.4269 3.5 12 3.5C8.5731 3.5 6.52693 4.08098 5.30396 5.30395C4.08099 6.52693 3.5 8.5731 3.5 12C3.5 15.4269 4.08099 17.473 5.30396 18.696C6.52693 19.919 8.5731 20.5 12 20.5C15.4269 20.5 17.4731 19.919 18.6961 18.696ZM19.7567 19.7567C18.089 21.4245 15.5101 22 12 22C8.48991 22 5.91108 21.4245 4.2433 19.7567C2.57552 18.0889 2 15.5101 2 12C2 8.4899 2.57552 5.91107 4.2433 4.24329C5.91108 2.57552 8.48991 2 12 2C15.5101 2 18.089 2.57552 19.7567 4.24329C21.4245 5.91107 22 8.4899 22 12C22 15.5101 21.4245 18.0889 19.7567 19.7567Z" fill="#34485C"/>
</svg>
