<svg width="48" height="48" viewBox="0 0 48 48" fill="none" xmlns="http://www.w3.org/2000/svg">
<path d="M41.9999 4H5.99999C4.89733 4 4 4.89733 4 5.99999V28.6666C4 29.7692 4.89733 30.6666 5.99999 30.6666H41.9999C43.1025 30.6666 43.9999 29.7692 43.9999 28.6666V5.99999C43.9999 4.89733 43.1025 4 41.9999 4ZM42.6665 28.6666C42.6665 29.0346 42.3679 29.3333 41.9999 29.3333H5.99999C5.63199 29.3333 5.33333 29.0346 5.33333 28.6666V5.99999C5.33333 5.63199 5.63199 5.33333 5.99999 5.33333H41.9999C42.3679 5.33333 42.6665 5.63199 42.6665 5.99999V28.6666Z" fill="#34485C"/>
<path d="M40.184 9.95747C39.778 9.8848 39.402 9.72014 39.068 9.4688C38.526 9.05947 38.1614 8.47414 38.0434 7.82748C37.9274 7.15481 37.3567 6.66748 36.6867 6.66748H11.3135C10.6435 6.66748 10.0728 7.15481 9.95814 7.82081C9.8388 8.47347 9.47414 9.05881 8.93281 9.46814C8.59814 9.72014 8.22281 9.8848 7.82081 9.9568C7.15215 10.0721 6.66748 10.6428 6.66748 11.3135V23.3541C6.66748 24.0248 7.15281 24.5954 7.81681 24.7101C8.22281 24.7828 8.59881 24.9474 8.93281 25.1988C9.4748 25.6081 9.83947 26.1934 9.95747 26.8401C10.0735 27.5127 10.6441 28.0001 11.3141 28.0001H36.688C37.358 28.0001 37.9287 27.5127 38.0434 26.8467C38.1627 26.1941 38.5274 25.6087 39.0687 25.1994C39.4034 24.9474 39.7787 24.7828 40.1807 24.7108C40.8494 24.5954 41.334 24.0248 41.334 23.3541V11.3135C41.334 10.6428 40.848 10.0721 40.184 9.95747ZM40 23.3541L39.9487 23.3974C39.3347 23.5074 38.768 23.7554 38.2654 24.1348C37.4547 24.7461 36.9107 25.6241 36.73 26.6134C36.724 26.6467 36.7014 26.6667 36.6874 26.6667H11.3135C11.2995 26.6667 11.2761 26.6467 11.2695 26.6067C11.0901 25.6241 10.5461 24.7461 9.7348 24.1341C9.23214 23.7554 8.66547 23.5074 8.04748 23.3968C8.02014 23.3921 8.00081 23.3741 8.00081 23.3541V11.3135L8.05214 11.2701C8.66614 11.1601 9.23281 10.9121 9.73547 10.5328C10.5461 9.92147 11.0901 9.04347 11.2708 8.05414C11.2768 8.02081 11.2995 8.00081 11.3135 8.00081H36.6874C36.7014 8.00081 36.7247 8.02081 36.7314 8.06081C36.9107 9.04347 37.4547 9.92147 38.266 10.5335C38.7687 10.9121 39.3354 11.1601 39.9487 11.2701C39.9507 11.2701 39.9987 11.3135 40 11.3135V23.3541Z" fill="#34485C"/>
<path d="M12.0002 14.6665C10.5295 14.6665 9.3335 15.8625 9.3335 17.3332C9.3335 18.8038 10.5295 19.9998 12.0002 19.9998C13.4708 19.9998 14.6668 18.8038 14.6668 17.3332C14.6668 15.8625 13.4708 14.6665 12.0002 14.6665ZM12.0002 18.6665C11.2648 18.6665 10.6668 18.0685 10.6668 17.3332C10.6668 16.5978 11.2648 15.9998 12.0002 15.9998C12.7355 15.9998 13.3335 16.5978 13.3335 17.3332C13.3335 18.0685 12.7355 18.6665 12.0002 18.6665Z" fill="#34485C"/>
<path d="M36.0002 14.6665C34.5295 14.6665 33.3335 15.8625 33.3335 17.3332C33.3335 18.8038 34.5295 19.9998 36.0002 19.9998C37.4708 19.9998 38.6668 18.8038 38.6668 17.3332C38.6668 15.8625 37.4708 14.6665 36.0002 14.6665ZM36.0002 18.6665C35.2648 18.6665 34.6668 18.0685 34.6668 17.3332C34.6668 16.5978 35.2648 15.9998 36.0002 15.9998C36.7355 15.9998 37.3335 16.5978 37.3335 17.3332C37.3335 18.0685 36.7355 18.6665 36.0002 18.6665Z" fill="#34485C"/>
<path d="M24 9.3335C19.5887 9.3335 16 12.9222 16 17.3335C16 21.7448 19.5887 25.3334 24 25.3334C28.4113 25.3334 31.9999 21.7448 31.9999 17.3335C31.9999 12.9222 28.4113 9.3335 24 9.3335ZM24 24.0001C20.324 24.0001 17.3333 21.0095 17.3333 17.3335C17.3333 13.6575 20.324 10.6668 24 10.6668C27.676 10.6668 30.6666 13.6575 30.6666 17.3335C30.6666 21.0095 27.676 24.0001 24 24.0001Z" fill="#34485C"/>
<path d="M25.9999 16.6665H23.178L24.572 14.3431C24.7613 14.0271 24.6593 13.6178 24.3433 13.4285C24.0266 13.2391 23.618 13.3418 23.4286 13.6571L21.4286 16.9905C21.3046 17.1965 21.302 17.4525 21.42 17.6625C21.5386 17.8711 21.76 18.0005 22 18.0005H24.822L23.428 20.3238C23.2386 20.6398 23.3406 21.0491 23.6566 21.2384C23.764 21.3031 23.8826 21.3338 23.9993 21.3338C24.226 21.3338 24.4466 21.2184 24.5713 21.0104L26.5713 17.6771C26.6953 17.4711 26.6979 17.2151 26.5799 17.0051C26.4613 16.7965 26.2399 16.6665 25.9999 16.6665Z" fill="#34485C"/>
<path d="M24.0002 33.333C23.6316 33.333 23.3336 33.631 23.3336 33.9997V41.333L22.5336 40.2663C22.3129 39.971 21.8949 39.9117 21.6009 40.133C21.3062 40.3537 21.2462 40.7716 21.4676 41.0656L23.4676 43.7323C23.5929 43.9003 23.7909 43.999 24.0009 43.999C24.2109 43.999 24.4082 43.9003 24.5342 43.7323L26.5342 41.0656C26.7556 40.7716 26.6956 40.3537 26.4009 40.133C26.1069 39.913 25.6889 39.9717 25.4682 40.2663L24.6682 41.333V33.9997C24.6682 33.631 24.3702 33.333 24.0016 33.333H24.0002Z" fill="#FF4D72"/>
<path d="M12.6667 32C12.2981 32 12.0001 32.298 12.0001 32.6667V40L11.2001 38.9333C10.9794 38.6386 10.5614 38.5786 10.2674 38.8C9.97274 39.0206 9.91274 39.4386 10.1341 39.7326L12.1341 42.3993C12.2594 42.5673 12.4574 42.666 12.6674 42.666C12.8774 42.666 13.0747 42.5673 13.2007 42.3993L15.2007 39.7326C15.4221 39.4386 15.3621 39.0206 15.0674 38.8C14.7734 38.5793 14.3554 38.6393 14.1347 38.9333L13.3347 40V32.6667C13.3347 32.298 13.0367 32 12.6681 32H12.6667Z" fill="#FF4D72"/>
<path d="M35.3332 32C34.9646 32 34.6666 32.298 34.6666 32.6667V40L33.8666 38.9333C33.6452 38.6386 33.2272 38.5786 32.9339 38.8C32.6392 39.0206 32.5792 39.4386 32.8006 39.7326L34.8006 42.3993C34.9259 42.5673 35.1239 42.666 35.3339 42.666C35.5439 42.666 35.7412 42.5673 35.8672 42.3993L37.8672 39.7326C38.0886 39.4386 38.0286 39.0206 37.7339 38.8C37.4406 38.5793 37.0219 38.6393 36.8012 38.9333L36.0012 40V32.6667C36.0012 32.298 35.7032 32 35.3346 32H35.3332Z" fill="#FF4D72"/>
</svg>
