<svg width="32" height="32" viewBox="0 0 32 32" fill="none" xmlns="http://www.w3.org/2000/svg">
<path d="M13.2468 23.8992C13.1422 23.8992 13.0376 23.8662 12.955 23.8057C12.7569 23.6625 12.6908 23.3983 12.8009 23.1781L15.6413 17.4974L11.5404 16.1322C11.3752 16.0772 11.2541 15.9451 11.2101 15.7744C11.1716 15.6093 11.2211 15.4277 11.3422 15.3066L19.0817 7.56708C19.1752 7.4735 19.3019 7.41846 19.434 7.41846C19.5386 7.41846 19.6431 7.45148 19.7257 7.51204C19.9239 7.65515 19.9899 7.91938 19.8798 8.13956L17.0395 13.8148L21.1404 15.1799C21.3055 15.235 21.4266 15.3671 21.4707 15.5377C21.5092 15.7084 21.4597 15.879 21.3386 16.0056L13.5991 23.7451C13.5055 23.8387 13.3789 23.8937 13.2468 23.8937V23.8992Z" fill="#FF4D72"/>
<path d="M28.7751 16.1604C28.4999 16.1604 28.2742 15.9347 28.2742 15.6594C28.2742 9.07594 22.9182 3.71997 16.3347 3.71997C12.564 3.71997 8.96403 5.553 6.70164 8.62457L6.35485 9.09796L8.51265 8.96585C8.80439 8.96585 9.02458 9.16952 9.04109 9.43374C9.0521 9.56585 9.00806 9.69246 8.91449 9.79705C8.82641 9.89613 8.70531 9.95668 8.5732 9.96218L5.47961 10.1548C5.47961 10.1548 4.95117 10.0833 4.95117 9.65943V6.37318C4.95117 6.09795 5.17686 5.87227 5.45209 5.87227C5.72732 5.87227 5.95301 6.09795 5.95301 6.37318V7.98053L6.43741 7.40254C8.89247 4.4741 12.5971 2.72363 16.3402 2.72363C23.4742 2.72363 29.276 8.52548 29.276 15.6594C29.276 15.9347 29.0503 16.1604 28.7751 16.1604Z" fill="#34485C"/>
<path d="M16.3401 28.5964C9.20615 28.5964 3.4043 22.7946 3.4043 15.6606C3.4043 15.3854 3.62999 15.1597 3.90522 15.1597C4.18045 15.1597 4.40613 15.3854 4.40613 15.6606C4.40613 22.2441 9.76211 27.6001 16.3456 27.6001C20.1163 27.6001 23.7163 25.767 25.9787 22.69L26.3255 22.2166L24.1677 22.3487C23.8814 22.3487 23.6557 22.1395 23.6392 21.8808C23.6227 21.6056 23.8319 21.3689 24.1071 21.3523L27.2062 21.1597C27.4814 21.1597 27.7346 21.4074 27.7346 21.6551V24.9413C27.7346 25.2166 27.509 25.4423 27.2337 25.4423C26.9585 25.4423 26.7328 25.2166 26.7328 24.9413V23.334L26.2484 23.912C23.7878 26.8404 20.0887 28.5909 16.3456 28.5909L16.3401 28.5964Z" fill="#34485C"/>
</svg>
