<svg width="89" height="43" viewBox="0 0 89 43" fill="none" xmlns="http://www.w3.org/2000/svg">
<g filter="url(#filter0_d_686_16043)">
<mask id="path-1-inside-1_686_16043" fill="white">
<path fill-rule="evenodd" clip-rule="evenodd" d="M45.9346 3.35936C45.5334 2.78054 44.6776 2.78054 44.2764 3.35936L40.9106 8.2156L9.98641 8.2156C8.31508 8.2156 6.9602 9.57048 6.9602 11.2418L6.9602 28.3904C6.9602 30.0617 8.31508 31.4166 9.98641 31.4166L79.0136 31.4166C80.685 31.4166 82.0398 30.0617 82.0398 28.3904V11.2418C82.0398 9.57048 80.685 8.2156 79.0136 8.2156L49.3004 8.2156L45.9346 3.35936Z"/>
</mask>
<path fill-rule="evenodd" clip-rule="evenodd" d="M45.9346 3.35936C45.5334 2.78054 44.6776 2.78054 44.2764 3.35936L40.9106 8.2156L9.98641 8.2156C8.31508 8.2156 6.9602 9.57048 6.9602 11.2418L6.9602 28.3904C6.9602 30.0617 8.31508 31.4166 9.98641 31.4166L79.0136 31.4166C80.685 31.4166 82.0398 30.0617 82.0398 28.3904V11.2418C82.0398 9.57048 80.685 8.2156 79.0136 8.2156L49.3004 8.2156L45.9346 3.35936Z" fill="white"/>
<path d="M44.2764 3.35936L43.4474 2.78473L43.4474 2.78473L44.2764 3.35936ZM45.9346 3.35936L46.7637 2.78473L46.7636 2.78473L45.9346 3.35936ZM40.9106 8.2156V9.22434H41.4388L41.7397 8.79022L40.9106 8.2156ZM49.3004 8.2156L48.4713 8.79022L48.7722 9.22434H49.3004V8.2156ZM45.1055 3.93398L45.1055 3.93398L46.7636 2.78473C45.9613 1.62709 44.2497 1.6271 43.4474 2.78473L45.1055 3.93398ZM41.7397 8.79022L45.1055 3.93398L43.4474 2.78473L40.0815 7.64097L41.7397 8.79022ZM9.98641 9.22434L40.9106 9.22434V7.20686L9.98641 7.20686V9.22434ZM7.96894 11.2418C7.96894 10.1276 8.87219 9.22434 9.98641 9.22434V7.20686C7.75797 7.20686 5.95146 9.01337 5.95146 11.2418H7.96894ZM7.96894 28.3904L7.96894 11.2418H5.95146L5.95146 28.3904H7.96894ZM9.98641 30.4078C8.87219 30.4078 7.96894 29.5046 7.96894 28.3904H5.95146C5.95146 30.6188 7.75797 32.4253 9.98641 32.4253V30.4078ZM79.0136 30.4078L9.98641 30.4078V32.4253L79.0136 32.4253V30.4078ZM81.0311 28.3904C81.0311 29.5046 80.1279 30.4078 79.0136 30.4078V32.4253C81.2421 32.4253 83.0486 30.6188 83.0486 28.3904H81.0311ZM81.0311 11.2418V28.3904H83.0486V11.2418H81.0311ZM79.0136 9.22434C80.1279 9.22434 81.0311 10.1276 81.0311 11.2418H83.0486C83.0486 9.01337 81.2421 7.20686 79.0136 7.20686V9.22434ZM49.3004 9.22434L79.0136 9.22434V7.20686L49.3004 7.20686V9.22434ZM45.1055 3.93398L48.4713 8.79022L50.1295 7.64097L46.7637 2.78473L45.1055 3.93398Z" fill="#A6C94E" mask="url(#path-1-inside-1_686_16043)"/>
</g>
<defs>
<filter id="filter0_d_686_16043" x="-9.86058e-05" y="-9.86058e-05" width="89.0002" height="42.412" filterUnits="userSpaceOnUse" color-interpolation-filters="sRGB">
<feFlood flood-opacity="0" result="BackgroundImageFix"/>
<feColorMatrix in="SourceAlpha" type="matrix" values="0 0 0 0 0 0 0 0 0 0 0 0 0 0 0 0 0 0 127 0" result="hardAlpha"/>
<feOffset dy="4"/>
<feGaussianBlur stdDeviation="3.45"/>
<feComposite in2="hardAlpha" operator="out"/>
<feColorMatrix type="matrix" values="0 0 0 0 0.65098 0 0 0 0 0.788235 0 0 0 0 0.305882 0 0 0 0.17 0"/>
<feBlend mode="normal" in2="BackgroundImageFix" result="effect1_dropShadow_686_16043"/>
<feBlend mode="normal" in="SourceGraphic" in2="effect1_dropShadow_686_16043" result="shape"/>
</filter>
</defs>
</svg>
